# AST/ASF file generated using VICON BodyLanguage
# -----------------------------------------------
:version 1.10
:name VICON
:units
  mass 1.0
  length 0.45
  angle deg
:documentation
   .ast/.asf automatically generated from VICON data using
   VICON BodyBuilder and BodyLanguage model FoxedUp or BRILLIANT.MOD
:root
   order TX TY TZ RX RY RZ
   axis XYZ
   position 0 0 0  
   orientation 0 0 0 
:bonedata
  begin
     id 1 
     name lhipjoint
     direction 0.558404 -0.748506 0.357664 
     length 2.4234 
     axis 0 0 0  XYZ
  end
  begin
     id 2 
     name lfemur
     direction 0.34202 -0.939693 0  
     length 7.14567  
     axis 0 0 20  XYZ
    dof rx ry rz
    limits (-160.0 20.0)
           (-70.0 70.0)
           (-60.0 70.0)
  end
  begin
     id 3 
     name ltibia
     direction 0.34202 -0.939693 0   
     length 8.13956   
     axis 0 0 20   XYZ
    dof rx
    limits (-10.0 170.0)
  end
  begin
     id 4 
     name lfoot
     direction 0.0791314 -0.217412 0.972867   
     length 2.00134   
     axis -90 7.62852e-016 20   XYZ
    dof rx rz
    limits (-45.0 90.0)
           (-70.0 20.0)
  end
  begin
     id 5 
     name ltoes
     direction 1.53547e-011 -4.21922e-011 1   
     length 1.00735   
     axis -90 7.62852e-016 20   XYZ
    dof rx
    limits (-90.0 20.0)
  end
  begin
     id 6 
     name rhipjoint
     direction -0.496392 -0.78327 0.374276   
     length 2.31584  
     axis 0 0 0  XYZ 
  end
  begin
     id 7 
     name rfemur
     direction -0.34202 -0.939693 0   
     length 7.47417   
     axis 0 0 -20   XYZ
    dof rx ry rz
    limits (-160.0 20.0)
           (-70.0 70.0)
           (-70.0 60.0)
  end
  begin
     id 8 
     name rtibia
     direction -0.34202 -0.939693 0   
     length 7.69071   
     axis 0 0 -20   XYZ
    dof rx
    limits (-10.0 170.0)
 end
 begin
     id 9 
     name rfoot
     direction -0.103069 -0.28318 0.953512   
     length 2.16135  
     axis -90 -7.62852e-016 -20   XYZ
    dof rx rz
    limits (-45.0 90.0)
           (-20.0 70.0)
  end
  begin
     id 10 
     name rtoes
     direction -1.53581e-011 -4.21904e-011 1   
     length 1.07867   
     axis -90 -7.62852e-016 -20   XYZ
    dof rx
    limits (-90.0 20.0)
  end
  begin
     id 11 
     name lowerback
     direction -0.0258961 0.994776 -0.0987407   
     length 2.19412   
     axis 0 0 0   XYZ
    dof rx ry rz
    limits (-20.0 45.0)
           (-30.0 30.0)
           (-30.0 30.0)
  end
  begin
     id 12 
     name upperback
     direction 0.0402454 0.999185 0.00320666   
     length 2.18445   
     axis 0 0 0   XYZ
    dof rx ry rz
    limits (-20.0 45.0)
           (-30.0 30.0)
           (-30.0 30.0)
  end
  begin
     id 13 
     name thorax
     direction 0.0519376 0.997415 0.0496558   
     length 2.21487   
     axis 0 0 0   XYZ
    dof rx ry rz
    limits (-20.0 45.0)
           (-30.0 30.0)
           (-30.0 30.0)
  end
  begin
     id 14 
     name lowerneck
     direction -0.0921276 0.983211 0.157506   
     length 1.61201   
     axis 0 0 0   XYZ
    dof rx ry rz
    limits (-20.0 45.0)
           (-30.0 30.0)
           (-30.0 30.0)
  end
  begin
     id 15 
     name upperneck
     direction 0.0820814 0.98162 -0.172292   
     length 1.65275   
     axis 0 0 0   XYZ
    dof rx ry rz
    limits (-20.0 45.0)
           (-30.0 30.0)
           (-30.0 30.0)
  end
  begin
     id 16
     name head
     direction 0.0336554 0.996413 -0.0776455  
     length 1.66415  
     axis 0 0 0   XYZ
    dof rx ry rz
    limits (-20.0 45.0)
           (-30.0 30.0)
           (-30.0 30.0)
  end
  begin
     id 17 
     name lclavicle
     direction 0.94696 0.284418 -0.149576  
     length 3.41447  
     axis 0 0 0   XYZ
    dof ry rz
    limits (-20.0 10.0)
           (0.0 20.0)
  end
  begin
     id 18 
     name lhumerus
     direction 1 -0.000130264 -9.81312e-005   
     length 5.19964   
     axis 180 -30 -90   XYZ
    dof rx ry rz
    limits (-60.0 90.0)
           (-90.0 90.0)
           (-90.0 90.0)
  end
  begin
     id 19
     name lradius
     direction 1 -4.48961e-011 1.43854e-026   
     length 3.32189   
     axis 180 -30 -90   XYZ
    dof rx
    limits (-10.0 170.0)
  end
  begin
     id 20
     name lwrist
     direction 1 -4.48958e-011 3.1502e-026   
     length 1.66095   
     axis -1.97692e-014 90 90   XYZ
    dof ry
    limits (-180.0 0.0)
 end
  begin
     id 21 
     name lhand
     direction 1 -4.48927e-011 6.3004e-026   
     length 0.645616   
     axis -4.02019e-014 90 90   XYZ
    dof rx rz
    limits (-90.0 90.0)
           (-45.0 45.0)
  end
  begin
     id 22 
     name lfingers
     direction 1 -4.4904e-011 1.26008e-025   
     length 0.520512   
     axis -8.04039e-014 90 90   XYZ
    dof rx
    limits (0.0 90.0)
  end
  begin
     id 23
     name lthumb
     direction 0.707107 -6.34947e-011 0.707107   
     length 0.747354   
     axis -90 45 2.85299e-015   XYZ
    dof rx rz
    limits (-45.0 45.0)
           (-45.0 45.0)
  end
  begin
     id 24 
     name rclavicle
     direction -0.909391 0.383475 -0.161107   
     length 3.25176  
     axis 0 0 0   XYZ 
    dof ry rz
    limits (-10.0 20.0)
           (-20.0 0.0)
  end
  begin
     id 25 
     name rhumerus
     direction -1 -4.48965e-011 -1.81384e-027  
     length 5.6595   
     axis 180 30 90   XYZ
    dof rx ry rz
    limits (-90.0 60.0)
           (-90.0 90.0)
           (-90.0 90.0)
  end
  begin
     id 26 
     name rradius
     direction -1 -4.48996e-011 -8.09397e-027   
     length 3.37604   
     axis 180 30 90   XYZ
    dof rx
    limits (-10.0 170.0)
  end
  begin
     id 27 
     name rwrist
     direction -1 -4.48927e-011 -1.56669e-026   
     length 1.68802   
     axis 1.21142e-014 -90 -90   XYZ
    dof ry
    limits (-180.0 0.0)
  end
  begin
     id 28
     name rhand
     direction -1 -4.48912e-011 -3.13339e-026   
     length 0.824702   
     axis 1.99937e-014 -90 -90   XYZ
    dof rx rz
    limits (-90.0 90.0)
           (-45.0 45.0)
  end
  begin
     id 29
     name rfingers
     direction -1 -4.49011e-011 -6.26677e-026   
     length 0.664896   
     axis 3.99874e-014 -90 -90   XYZ
    dof rx
    limits (0.0 90.0)
  end
  begin
     id 30
     name rthumb
     direction -0.707107 -6.34931e-011 0.707107   
     length 0.954662   
     axis -90 -45 -2.85299e-015   XYZ
    dof rx rz
    limits (-45.0 45.0)
           (-45.0 45.0)
  end
:hierarchy
  begin
    root lhipjoint rhipjoint lowerback
    lhipjoint lfemur
    lfemur ltibia
    ltibia lfoot
    lfoot ltoes
    rhipjoint rfemur
    rfemur rtibia
    rtibia rfoot
    rfoot rtoes
    lowerback upperback
    upperback thorax
    thorax lowerneck lclavicle rclavicle
    lowerneck upperneck
    upperneck head
    lclavicle lhumerus
    lhumerus lradius
    lradius lwrist
    lwrist lhand lthumb
    lhand lfingers
    rclavicle rhumerus
    rhumerus rradius
    rradius rwrist
    rwrist rhand rthumb
    rhand rfingers
  end

#!OML:ASF F:\VICON\USERDATA\INSTALL\rory3\rory3.ASF
:FULLY-SPECIFIED
:DEGREES
302
root 12.9833 17.2331 10.2974 1.85119 2.94228 1.95641
lowerback 7.09724 -0.821802 -6.49373
upperback 1.03609 -1.46303 4.18903
thorax -2.63105 -0.657166 8.22521
lowerneck 2.8943 -12.661 -17.8895
upperneck 29.2257 -20.7115 13.03
head 12.577 -10.3127 5.44996
rclavicle 1.90833e-014 1.90833e-014
rhumerus -56.6265 -40.4134 -46.1423
rradius 21.5696
rwrist -8.19276
rhand -15.5381 15.9136
rfingers 7.12502
rthumb 10.6457 -13.7967
lclavicle 1.90833e-014 1.90833e-014
lhumerus -34.6877 15.7849 81.6284
lradius 30.3902
lwrist -4.58258
lhand -4.01945 29.2421
lfingers 7.12502
lthumb 21.7353 58.0419
rfemur -22.0794 5.09168 3.49434
rtibia 37.6266
rfoot -12.6548 -7.76364
rtoes 13.6436
lfemur -7.02607 -3.85235 -21.0104
ltibia 34.4113
lfoot -25.2208 -2.43089
ltoes -0.111673
303
root 12.9628 17.2323 10.3127 1.95008 2.84407 1.89868
lowerback 7.20358 -0.972878 -6.55354
upperback 0.903926 -1.67441 4.23155
thorax -2.786 -0.750905 8.33123
lowerneck 2.69691 -12.3451 -17.7354
upperneck 29.4313 -20.212 12.8644
head 12.5564 -10.0797 5.44452
rclavicle 1.07344e-014 -3.18055e-015
rhumerus -55.8884 -39.1674 -47.5435
rradius 22.3498
rwrist -10.0011
rhand -15.3742 15.3089
rfingers 7.12502
rthumb 10.8038 -14.3933
lclavicle 1.07344e-014 -3.18055e-015
lhumerus -34.391 14.5619 81.955
lradius 31.3624
lwrist -4.9611
lhand -3.65516 29.0628
lfingers 7.12502
lthumb 22.0851 57.8216
rfemur -22.3582 4.98045 3.64229
rtibia 37.9275
rfoot -12.6158 -7.58878
rtoes 13.7561
lfemur -7.07156 -3.88305 -20.8739
ltibia 34.3873
lfoot -25.2427 -2.38726
ltoes -0.190357
304
root 12.9419 17.2262 10.3341 1.91855 2.71009 1.95993
lowerback 7.38709 -1.14033 -6.75928
upperback 0.926276 -1.92416 4.24651
thorax -2.80988 -0.873744 8.49572
lowerneck 2.13335 -12.0375 -17.5536
upperneck 29.6726 -19.6988 12.7622
head 12.627 -9.81349 5.43545
rclavicle 2.16675e-014 -1.03368e-014
rhumerus -55.2593 -38.7104 -48.2459
rradius 22.7787
rwrist -10.5437
rhand -15.26 14.857
rfingers 7.12502
rthumb 10.914 -14.8393
lclavicle 2.16675e-014 -1.03368e-014
lhumerus -33.696 13.4255 82.3317
lradius 32.1719
lwrist -4.77205
lhand -3.81698 29.8912
lfingers 7.12502
lthumb 21.9297 58.6683
rfemur -22.4635 4.931 3.67004
rtibia 38.2486
rfoot -12.5309 -7.40163
rtoes 13.4811
lfemur -6.86713 -3.80057 -20.8812
ltibia 34.3161
lfoot -25.3197 -2.26585
ltoes -0.75157
305
root 12.9216 17.2152 10.3664 1.91362 2.46539 2.02415
lowerback 7.39752 -1.23614 -6.92947
upperback 0.937821 -2.06712 4.23908
thorax -2.76967 -0.946213 8.5993
lowerneck 1.72783 -11.8249 -17.4334
upperneck 29.7922 -19.3501 12.7322
head 12.6673 -9.62996 5.44299
rclavicle -1.78906e-015 1.51076e-014
rhumerus -55.0281 -38.512 -48.4174
rradius 23.0751
rwrist -10.6146
rhand -15.2752 14.7017
rfingers 7.12502
rthumb 10.8993 -14.9954
lclavicle -1.78906e-015 1.51076e-014
lhumerus -33.0733 12.2452 82.6275
lradius 32.8543
lwrist -4.49937
lhand -3.97992 30.2306
lfingers 7.12502
lthumb 21.7732 59.0259
rfemur -22.6088 4.9507 3.6891
rtibia 38.586
rfoot -12.6323 -7.22442
rtoes 13.1486
lfemur -6.62862 -3.71125 -20.9126
ltibia 34.2322
lfoot -25.4108 -2.09008
ltoes -0.819713
306
root 12.9 17.2114 10.4008 2.0363 2.24098 2.17266
lowerback 7.32414 -1.30025 -7.17795
upperback 0.777663 -2.17089 4.21558
thorax -2.86784 -0.985123 8.72932
lowerneck 1.63432 -11.5654 -17.3697
upperneck 29.9002 -18.9822 12.7348
head 12.6484 -9.45782 5.49718
rclavicle 3.16068e-014 1.03368e-014
rhumerus -55.1749 -38.2355 -48.1711
rradius 23.2532
rwrist -10.7536
rhand -14.9863 14.9047
rfingers 7.12502
rthumb 11.1779 -14.7776
lclavicle 3.16068e-014 1.03368e-014
lhumerus -32.7264 10.9874 82.848
lradius 33.3599
lwrist -4.29842
lhand -4.0685 30.0397
lfingers 7.12502
lthumb 21.6882 58.8448
rfemur -22.886 4.89379 3.61263
rtibia 38.9029
rfoot -12.8115 -7.03529
rtoes 13.032
lfemur -6.55355 -3.80148 -21.0482
ltibia 34.1448
lfoot -25.4456 -1.87162
ltoes -0.582581
307
root 12.8783 17.2065 10.4284 2.09606 2.02269 2.05765
lowerback 7.31591 -1.39541 -7.13868
upperback 0.776782 -2.29325 4.26054
thorax -2.83899 -1.04832 8.76495
lowerneck 0.911819 -11.3488 -17.1473
upperneck 30.1763 -18.5781 12.597
head 12.7843 -9.23089 5.43912
rclavicle -1.70955e-014 -3.18055e-015
rhumerus -54.7472 -38.1004 -48.3773
rradius 23.4192
rwrist -11.3765
rhand -14.7874 15.0041
rfingers 7.12502
rthumb 11.3698 -14.6676
lclavicle -1.70955e-014 -3.18055e-015
lhumerus -32.1322 9.8729 83.0586
lradius 33.9355
lwrist -4.0155
lhand -4.16182 30.5467
lfingers 7.12502
lthumb 21.5986 59.3621
rfemur -23.1127 4.83647 3.83941
rtibia 39.2006
rfoot -12.9862 -6.80303
rtoes 13.1142
lfemur -6.45269 -4.02091 -20.9194
ltibia 34.0983
lfoot -25.5505 -1.52871
ltoes -0.781058
308
root 12.8538 17.2023 10.4533 2.07598 1.76078 1.78476
lowerback 7.32102 -1.49146 -6.97341
upperback 0.921992 -2.40539 4.34415
thorax -2.66963 -1.12 8.76378
lowerneck -0.0715407 -11.2119 -16.9634
upperneck 30.3285 -18.2852 12.6186
head 12.9696 -9.03152 5.41211
rclavicle 2.46493e-014 2.06736e-014
rhumerus -53.8587 -37.9306 -49.1888
rradius 23.8133
rwrist -12.4967
rhand -15.3414 14.3753
rfingers 7.12502
rthumb 10.8354 -15.3252
lclavicle 2.46493e-014 2.06736e-014
lhumerus -31.4465 8.96638 83.1772
lradius 34.629
lwrist -3.7449
lhand -4.32346 31.0847
lfingers 7.12502
lthumb 21.4433 59.9179
rfemur -23.2431 4.86807 4.2632
rtibia 39.4614
rfoot -13.1647 -6.60355
rtoes 13.1926
lfemur -6.30216 -4.06498 -20.5856
ltibia 34.0772
lfoot -25.7187 -1.20923
ltoes -1.64268
309
root 12.8232 17.2001 10.479 2.1303 1.52104 1.62883
lowerback 7.35536 -1.55796 -6.98872
upperback 0.894587 -2.49571 4.41597
thorax -2.69544 -1.1629 8.8609
lowerneck -0.160031 -10.8695 -16.7588
upperneck 30.1504 -17.802 12.7515
head 12.8032 -8.78329 5.5105
rclavicle -1.05356e-014 -9.54166e-015
rhumerus -53.4089 -37.6715 -49.602
rradius 24.17
rwrist -13.3501
rhand -15.9591 13.8718
rfingers 7.12502
rthumb 10.2396 -15.859
lclavicle -1.05356e-014 -9.54166e-015
lhumerus -31.0934 7.96923 83.2274
lradius 35.2793
lwrist -3.43123
lhand -4.51372 31.1145
lfingers 7.12502
lthumb 21.2606 59.9684
rfemur -23.4266 4.96783 4.57127
rtibia 39.7046
rfoot -13.2837 -6.53094
rtoes 13.0485
lfemur -6.25494 -3.99987 -20.3217
ltibia 34.0858
lfoot -25.8399 -0.986783
ltoes -2.37952
310
root 12.7954 17.196 10.5058 2.19461 1.29872 1.60877
lowerback 7.42109 -1.62123 -7.10162
upperback 0.800302 -2.59333 4.43713
thorax -2.80543 -1.20177 8.96462
lowerneck -0.337534 -10.5537 -16.6089
upperneck 30.015 -17.3436 12.8655
head 12.6837 -8.54866 5.59883
rclavicle -3.57812e-015 1.27222e-014
rhumerus -53.3958 -37.6869 -49.2718
rradius 24.1572
rwrist -13.0334
rhand -15.729 14.6083
rfingers 7.12502
rthumb 10.4615 -15.1114
lclavicle -3.57812e-015 1.27222e-014
lhumerus -30.8204 6.80096 83.2439
lradius 35.9218
lwrist -2.87833
lhand -4.63761 31.227
lfingers 7.12502
lthumb 21.1416 60.0943
rfemur -23.6089 4.97143 4.70717
rtibia 39.9464
rfoot -13.4058 -6.35691
rtoes 12.6833
lfemur -6.18523 -3.94763 -20.2201
ltibia 34.0842
lfoot -25.9059 -0.901532
ltoes -2.15349
311
root 12.7693 17.189 10.5357 2.1838 1.13497 1.57808
lowerback 7.50159 -1.74791 -7.20638
upperback 0.839638 -2.77525 4.46574
thorax -2.76506 -1.29563 9.07463
lowerneck -1.13076 -10.2149 -16.164
upperneck 30.038 -16.7267 12.6871
head 12.6625 -8.20606 5.51709
rclavicle -5.96354e-016 3.57812e-014
rhumerus -53.4136 -38.2098 -48.4612
rradius 23.7933
rwrist -11.1404
rhand -14.9692 15.9889
rfingers 7.12502
rthumb 11.1944 -13.6924
lclavicle -5.96354e-016 3.57812e-014
lhumerus -30.4188 6.05448 83.1105
lradius 36.625
lwrist -2.47505
lhand -4.62511 31.3826
lfingers 7.12502
lthumb 21.1536 60.2485
rfemur -23.6482 4.83399 4.86576
rtibia 40.2083
rfoot -13.7951 -6.06281
rtoes 12.6185
lfemur -6.01858 -3.92117 -20.1146
ltibia 34.0466
lfoot -25.9267 -0.828214
ltoes -2.32463
